<svg width="18" height="12" viewBox="0 0 18 12" fill="none" xmlns="http://www.w3.org/2000/svg">
<path fill-rule="evenodd" clip-rule="evenodd" d="M12 0C10.3425 0 9 1.3425 9 3C9 4.6575 10.3425 6 12 6C13.6575 6 15 4.6575 15 3C15 1.3425 13.6575 0 12 0ZM13.5 3C13.5 2.175 12.825 1.5 12 1.5C11.175 1.5 10.5 2.175 10.5 3C10.5 3.825 11.175 4.5 12 4.5C12.825 4.5 13.5 3.825 13.5 3ZM16.5 9.75C16.35 9.2175 14.025 8.25 12 8.25C9.975 8.25 7.65 9.2175 7.5 9.7575V10.5H16.5V9.75ZM6 9.75C6 7.755 9.9975 6.75 12 6.75C14.0025 6.75 18 7.755 18 9.75V12H6V9.75Z" fill="black"/>
<path d="M6.35262 3.9525C6.36804 3.84 6.37576 3.72375 6.37576 3.6C6.37576 3.48 6.36804 3.36 6.34877 3.2475L7.13138 2.655C7.20077 2.6025 7.22005 2.50125 7.17764 2.42625L6.43744 1.18125C6.39118 1.09875 6.2948 1.0725 6.20998 1.09875L5.28858 1.45875C5.09582 1.31625 4.8915 1.19625 4.66404 1.10625L4.52525 0.15375C4.50983 0.0637499 4.43273 0 4.3402 0H2.8598C2.76727 0 2.69402 0.0637499 2.6786 0.15375L2.53982 1.10625C2.31236 1.19625 2.10418 1.32 1.91527 1.45875L0.993874 1.09875C0.90906 1.06875 0.812679 1.09875 0.766417 1.18125L0.0300708 2.42625C-0.0161918 2.505 -0.000770953 2.6025 0.0763334 2.655L0.858942 3.2475C0.839666 3.36 0.824245 3.48375 0.824245 3.6C0.824245 3.71625 0.831955 3.84 0.851232 3.9525L0.0686229 4.545C-0.000770947 4.5975 -0.020047 4.69875 0.0223604 4.77375L0.762562 6.01875C0.808824 6.10125 0.905205 6.1275 0.990019 6.10125L1.91142 5.74125C2.10418 5.88375 2.3085 6.00375 2.53596 6.09375L2.67475 7.04625C2.69402 7.13625 2.76727 7.2 2.8598 7.2H4.3402C4.43273 7.2 4.50983 7.13625 4.5214 7.04625L4.66018 6.09375C4.88764 6.00375 5.09582 5.88375 5.28473 5.74125L6.20613 6.10125C6.29094 6.13125 6.38732 6.10125 6.43358 6.01875L7.17378 4.77375C7.22005 4.69125 7.20077 4.5975 7.12752 4.545L6.35262 3.9525ZM3.6 4.95C2.83667 4.95 2.21212 4.3425 2.21212 3.6C2.21212 2.8575 2.83667 2.25 3.6 2.25C4.36333 2.25 4.98788 2.8575 4.98788 3.6C4.98788 4.3425 4.36333 4.95 3.6 4.95Z" fill="black"/>
</svg>
