<svg width="18" height="15" viewBox="0 0 18 15" fill="none" xmlns="http://www.w3.org/2000/svg">
<path d="M8.34705 7.39548C9.23417 7.39548 8.34705 8.50469 8.34705 7.61758C8.34705 7.46474 9.23417 7.61758 8.34705 7.61758C7.45993 7.61758 8.91142 8.84008 8.34705 7.61758C8.34705 8.50469 7.45993 7.39548 8.34705 7.39548ZM8.72202 8.79533C7.65026 8.79533 5.51074 9.33322 5.51074 10.401V11.2038H11.9333V10.401C11.9333 9.33322 9.79379 8.79533 8.72202 8.79533Z" fill="black"/>
<path d="M7.23657 6.70695V7.33105C7.23657 7.49318 7.32541 7.64421 7.46755 7.72194L8.57805 8.32827C8.7113 8.40156 8.87122 8.40156 9.00447 8.32827L10.115 7.72194C10.2571 7.64421 10.3459 7.49318 10.3459 7.33105V6.70695L9.00447 7.43988C8.87122 7.51317 8.7113 7.51317 8.57805 7.43988L7.23657 6.70695ZM8.57805 4.56148L6.70576 5.58313C6.55251 5.66753 6.55251 5.88963 6.70576 5.97403L8.57805 6.99568C8.7113 7.06897 8.87122 7.06897 9.00447 6.99568L10.7901 6.02067V7.33327C10.7901 7.45542 10.8901 7.55537 11.0122 7.55537C11.1344 7.55537 11.2343 7.45542 11.2343 7.33327V5.90962C11.2343 5.82744 11.1899 5.75415 11.1189 5.71417L9.00447 4.56148C8.87122 4.49041 8.7113 4.49041 8.57805 4.56148Z" fill="black"/>
<path d="M6.30784 1.75951L8.06735 3.51902H15.8356V12.3166H1.75951V1.75951H6.30784ZM7.03804 0H1.75951C0.791779 0 0.00879754 0.791779 0.00879754 1.75951L0 12.3166C0 13.2843 0.791779 14.0761 1.75951 14.0761H15.8356C16.8033 14.0761 17.5951 13.2843 17.5951 12.3166V3.51902C17.5951 2.55129 16.8033 1.75951 15.8356 1.75951H8.79755L7.03804 0Z" fill="black"/>
</svg>
