<svg width="17" height="14" viewBox="0 0 17 14" fill="none" xmlns="http://www.w3.org/2000/svg">
<path d="M13.9091 8.75V1.75C13.9091 0.7875 13.2136 0 12.3636 0H1.54545C0.695455 0 0 0.7875 0 1.75V8.75C0 9.7125 0.695455 10.5 1.54545 10.5H12.3636C13.2136 10.5 13.9091 9.7125 13.9091 8.75ZM6.95455 7.875C5.67182 7.875 4.63636 6.7025 4.63636 5.25C4.63636 3.7975 5.67182 2.625 6.95455 2.625C8.23727 2.625 9.27273 3.7975 9.27273 5.25C9.27273 6.7025 8.23727 7.875 6.95455 7.875ZM17 2.625V12.25C17 13.2125 16.3045 14 15.4545 14H2.31818V12.25H15.4545V2.625H17Z" fill="black"/>
</svg>
